<?xml version="1.0" standalone="no"?>
<!DOCTYPE svg PUBLIC "-//W3C//DTD SVG 20010904//EN"
 "http://www.w3.org/TR/2001/REC-SVG-20010904/DTD/svg10.dtd">
<svg version="1.0" xmlns="http://www.w3.org/2000/svg"
 width="260.000000pt" height="260.000000pt" viewBox="0 0 260.000000 260.000000"
 preserveAspectRatio="xMidYMid meet">
<metadata>
Created by potrace 1.11, written by Peter Selinger 2001-2013
</metadata>
<g transform="translate(0.000000,260.000000) scale(0.100000,-0.100000)"
fill="#000000" stroke="none">
<path d="M1295 2540 c-202 -43 -340 -164 -482 -420 -76 -138 -168 -422 -207
-640 -3 -19 -8 -44 -10 -55 -2 -11 -7 -42 -10 -68 -4 -27 -9 -56 -11 -65 -1
-10 -6 -46 -10 -82 -3 -36 -8 -72 -10 -80 -7 -27 -18 -203 -18 -285 -1 -287
57 -491 176 -609 70 -71 148 -107 277 -130 27 -4 92 -16 125 -22 11 -2 43 -7
70 -10 28 -3 56 -7 64 -10 38 -12 241 -15 296 -4 217 44 458 243 623 511 63
104 82 152 67 173 -8 10 -27 20 -43 22 -27 4 -30 2 -36 -30 -8 -44 -29 -86
-79 -161 -153 -226 -406 -386 -615 -386 -109 -1 -156 35 -202 151 -25 64 -67
234 -74 305 -18 165 -21 221 -21 420 0 263 9 395 36 580 6 39 13 84 15 100 4
26 9 52 30 165 15 80 61 217 100 298 53 109 124 187 180 198 79 15 145 -14
177 -77 25 -51 24 -101 -3 -222 -7 -35 -6 -38 19 -44 14 -3 37 -14 50 -25 59
-45 86 1 86 147 0 77 -4 98 -27 145 -49 99 -110 145 -253 189 -77 25 -217 35
-280 21z"/>
</g>
</svg>
